<svg width="107" height="32" viewBox="0 0 107 32" fill="none" xmlns="http://www.w3.org/2000/svg">
<path fill-rule="evenodd" clip-rule="evenodd" d="M22.7534 16.0364V15.9351C22.7534 15.2442 22.4104 14.6947 21.7643 14.3136C21.1142 13.9301 20.1571 13.7183 18.9418 13.7183C17.7069 13.7183 16.7242 13.8943 16.0174 14.2311C15.3133 14.5666 14.886 15.0596 14.7476 15.6993L14.7332 15.7661H12.6641L12.6782 15.6692C12.8279 14.6404 13.501 13.7776 14.5805 13.1746C15.6591 12.572 17.1468 12.226 18.9418 12.226C20.798 12.226 22.2267 12.5577 23.1937 13.2147C24.166 13.8752 24.6625 14.8587 24.6625 16.1345V18.4541C24.6625 20.1561 24.6987 20.7665 24.8606 21.7017L24.8778 21.8009H22.9106L22.8994 21.7292C22.8193 21.217 22.7815 20.664 22.7733 20.0828C21.6628 21.4813 19.8317 22.1452 16.9302 22.1452C15.5534 22.1452 14.4085 21.8947 13.6047 21.4198C12.7973 20.9429 12.333 20.2378 12.333 19.3421C12.333 18.5017 12.6886 17.7687 13.328 17.2986L13.3286 17.2981C14.0006 16.8128 14.8719 16.4852 17.1792 16.358L22.7534 16.0364ZM15.125 20.3294C15.6617 20.5669 16.4631 20.6891 17.5101 20.6891C19.0505 20.6891 20.3669 20.4006 21.2949 19.8821C22.2211 19.3646 22.7534 18.6233 22.7534 17.7111V17.3844L17.5336 17.705C16.2563 17.7866 15.4529 17.9448 14.9701 18.2048C14.7311 18.3334 14.5739 18.4854 14.4753 18.6631C14.3764 18.8415 14.3327 19.0527 14.3327 19.3059C14.3327 19.5325 14.3994 19.7282 14.5292 19.8964C14.6598 20.0657 14.8575 20.211 15.125 20.3294Z" fill="black"/>
<path d="M29.329 12.5703V14.7985C29.9808 13.2669 31.4486 12.2985 33.2494 12.2985C33.7409 12.2985 34.0749 12.3166 34.4651 12.4095L34.5301 12.425V14.2598L34.431 14.2426C34.0179 14.1707 33.7147 14.1351 33.2313 14.1351C32.5231 14.1351 31.9728 14.2337 31.5234 14.4165C31.0749 14.599 30.7227 14.8672 30.4128 15.2124L30.412 15.2134L30.4111 15.2143C29.7085 15.952 29.4559 17.0306 29.4559 18.3273V21.8009H27.5649V12.5703H29.329Z" fill="black"/>
<path d="M47.5029 18.6931L47.4733 18.7875C46.8044 20.9244 44.4532 22.1452 41.1946 22.1452C39.2605 22.1452 37.6505 21.6617 36.522 20.798C35.3913 19.9327 34.749 18.6893 34.749 17.1856C34.749 15.6726 35.396 14.429 36.5429 13.5659C37.6875 12.7046 39.3245 12.226 41.3034 12.226C43.0148 12.226 44.3855 12.5034 45.4198 13.0794C46.457 13.6568 47.1503 14.5313 47.5097 15.7111L47.5389 15.8067L45.4503 16.0825L45.4277 16.0171C45.1719 15.2762 44.7061 14.7314 44.0164 14.3701C43.324 14.0073 42.4014 13.827 41.2309 13.827C39.7822 13.827 38.6611 14.1332 37.9042 14.7025C37.1509 15.2692 36.7487 16.1036 36.7487 17.1856C36.7487 18.2291 37.1719 19.0644 37.9404 19.6414C38.7118 20.2205 39.838 20.5441 41.249 20.5441C43.4602 20.5441 44.8526 19.8267 45.5037 18.4541L45.5307 18.3973L47.5029 18.6931Z" fill="black"/>
<path d="M51.4725 21.8009H49.5815V8.49275H51.4725V14.5726C52.4844 13.067 54.2569 12.226 56.462 12.226C58.2436 12.226 59.6188 12.7059 60.548 13.6559C61.4769 14.6057 61.9472 16.0121 61.9472 17.838V21.8009H60.0562V18.0736C60.0562 16.6828 59.6974 15.6335 59.0155 14.9317C58.3339 14.2304 57.3169 13.8633 55.9727 13.8633C54.6293 13.8633 53.5036 14.2483 52.7153 14.9104C51.9283 15.5714 51.4725 16.5126 51.4725 17.6386V21.8009Z" fill="black"/>
<path d="M66.8647 11.0905H64.6294V8.81896H66.8647V11.0905Z" fill="black"/>
<path d="M66.7016 21.8009H64.8106V12.5703H66.7016V21.8009Z" fill="black"/>
<path d="M68.0001 12.5703H70.1747L74.5116 19.7135L74.5121 19.7142C74.6027 19.8567 74.6665 19.9903 74.7211 20.1189C74.7757 19.9903 74.8394 19.8567 74.9301 19.7142L74.9305 19.7135L79.2674 12.5703H81.442L75.756 21.8009H73.6861L68.0001 12.5703Z" fill="black"/>
<path fill-rule="evenodd" clip-rule="evenodd" d="M94.173 19.4361L94.1154 19.5178C92.8803 21.2691 90.874 22.1452 87.9208 22.1452C85.925 22.1452 84.2836 21.6942 83.1387 20.8604C81.991 20.0244 81.3483 18.8074 81.3483 17.2943C81.3483 15.6197 82.0169 14.348 83.1631 13.4976C84.306 12.6497 85.9161 12.226 87.794 12.226C89.7806 12.226 91.404 12.6723 92.5331 13.4972C93.6651 14.3243 94.294 15.5278 94.294 17.0225V17.7596H83.3191C83.4029 18.6142 83.8329 19.3017 84.5822 19.7828C85.3611 20.2829 86.4894 20.5623 87.9389 20.5623C90.1348 20.5623 91.6431 19.9328 92.5092 18.7132L92.5506 18.6549L94.173 19.4361ZM83.3218 16.3216H92.3107C92.2774 15.4856 91.7807 14.826 90.9844 14.3685C90.1649 13.8977 89.0345 13.6458 87.794 13.6458C86.5 13.6458 85.4158 13.92 84.6378 14.4032C83.8902 14.8675 83.4254 15.524 83.3218 16.3216Z" fill="black"/>
<path fill-rule="evenodd" clip-rule="evenodd" d="M90.4849 0H16C7.16344 0 0 7.16344 0 16C0 24.8366 7.16344 32 16 32H90.4849C99.3215 32 106.485 24.8366 106.485 16C106.485 7.16344 99.3215 0 90.4849 0ZM16 2.03242H90.4849C98.199 2.03242 104.453 8.28592 104.453 16C104.453 23.7141 98.199 29.9676 90.4849 29.9676H16C8.28592 29.9676 2.03242 23.7141 2.03242 16C2.03242 8.28592 8.28592 2.03242 16 2.03242Z" fill="black"/>
</svg>
