<svg width="46" height="52" viewBox="0 0 46 52" fill="none" xmlns="http://www.w3.org/2000/svg">
<path d="M33.2541 25.2571V12.9257C33.2541 12.5989 32.9885 12.3314 32.6639 12.3314C32.3393 12.3314 32.0738 12.5989 32.0738 12.9257V19.9086C32.0738 22.8651 29.6984 25.2571 26.7623 25.2571C23.8262 25.2571 21.4508 22.8651 21.4508 19.9086V12.9257C21.4508 12.5989 21.1852 12.3314 20.8607 12.3314C20.5361 12.3314 20.2705 12.5989 20.2705 12.9257V25.2571H15.5492V12.9257C15.5492 9.96914 17.9246 7.57714 20.8607 7.57714C23.7967 7.57714 26.1721 9.96914 26.1721 12.9257V19.9086C26.1721 20.2354 26.4377 20.5029 26.7623 20.5029C27.0869 20.5029 27.3525 20.2354 27.3525 19.9086V12.9257C27.3525 9.96914 29.7279 7.57714 32.6639 7.57714C35.6 7.57714 37.9754 9.96914 37.9754 12.9257V25.2571H33.2541ZM12.9672 10.1771C12.9672 8.75086 11.8016 7.57714 10.3852 7.57714C8.96885 7.57714 7.80328 8.75086 7.80328 10.1771C7.80328 11.6034 8.96885 12.7771 10.3852 12.7771C11.8016 12.7771 12.9672 11.6034 12.9672 10.1771ZM12.7459 25.2571V14.2629H8.02459V25.2571H12.7459ZM45.5 42.0457V9.95429C45.5 4.472 41.059 0 35.6148 0H10.3852C4.94098 0 0.5 4.472 0.5 9.95429V42.0457C0.5 47.528 4.94098 52 10.3852 52H24.5492V47.2457H10.3852C7.5377 47.2457 5.22131 44.9131 5.22131 42.0457V9.95429C5.22131 7.08686 7.5377 4.75429 10.3852 4.75429H35.6148C38.4623 4.75429 40.7787 7.08686 40.7787 9.95429V42.0457C40.7787 44.9131 38.4623 47.2457 35.6148 47.2457C32.7672 47.2457 30.4508 44.9131 30.4508 42.0457V32.0914C30.4508 29.1349 28.0754 26.7429 25.1393 26.7429C22.2033 26.7429 19.8279 29.1349 19.8279 32.0914V39.0743C19.8279 39.4011 19.5623 39.6686 19.2377 39.6686C18.9131 39.6686 18.6475 39.4011 18.6475 39.0743V32.0914C18.6475 29.1349 16.2721 26.7429 13.3361 26.7429C10.4 26.7429 8.02459 29.1349 8.02459 32.0914V44.4229H12.7459V32.0914C12.7459 31.7646 13.0115 31.4971 13.3361 31.4971C13.6607 31.4971 13.9262 31.7646 13.9262 32.0914V39.0743C13.9262 42.0309 16.3016 44.4229 19.2377 44.4229C22.1738 44.4229 24.5492 42.0309 24.5492 39.0743V32.0914C24.5492 31.7646 24.8148 31.4971 25.1393 31.4971C25.4639 31.4971 25.7295 31.7646 25.7295 32.0914V42.0457C25.7295 47.528 30.1705 52 35.6148 52C41.059 52 45.5 47.528 45.5 42.0457ZM38.1967 29.3429C38.1967 27.9166 37.0311 26.7429 35.6148 26.7429C34.1984 26.7429 33.0328 27.9166 33.0328 29.3429C33.0328 30.7691 34.1984 31.9429 35.6148 31.9429C37.0311 31.9429 38.1967 30.7691 38.1967 29.3429ZM37.9754 44.4229V33.4286H33.2541V44.4229H37.9754Z" fill="black"/>
</svg>
