<svg width="109" height="27" viewBox="0 0 109 27" fill="none" xmlns="http://www.w3.org/2000/svg">
<g clip-path="url(#clip0_1037_868)">
<path fill-rule="evenodd" clip-rule="evenodd" d="M103.703 9.9592C104.022 9.95836 104.34 9.92125 104.651 9.84857H104.652C104.833 10.8326 105.352 11.7222 106.12 12.3627C106.888 13.0031 107.856 13.3539 108.855 13.354V26.256H0.145081V0.527954H96.0391C96.0391 1.52818 96.3892 2.49678 97.0286 3.26541C97.6678 4.03391 98.5557 4.55393 99.5381 4.73513C99.4676 5.0456 99.4314 5.36288 99.4302 5.68127C99.4302 6.24306 99.5407 6.79934 99.7555 7.31836C99.9702 7.83739 100.285 8.30898 100.682 8.70622C101.079 9.10346 101.55 9.41857 102.068 9.63356C102.587 9.84855 103.142 9.9592 103.703 9.9592ZM102.028 17.0511H100.656L100.657 17.3605H101.159V18.9788H101.526V17.3605H102.028V17.0511ZM103.19 18.3922L103.562 17.0511H104.1V18.9736H103.773V17.4641L103.343 18.9736H103.064L102.637 17.4641V18.9736H102.316V17.0511H102.818L103.19 18.3922ZM33.6621 19.2329C35.9924 19.2329 36.4068 17.3206 36.3316 16.0169L35.1257 15.9313V16.3815C35.1257 17.0035 34.8744 17.0788 34.7459 17.0788C34.575 17.0788 34.3566 16.9681 34.3566 16.3815C34.3566 15.7843 34.3539 15.3002 34.351 14.774C34.3475 14.1475 34.3437 13.4614 34.3437 12.4535C34.3437 10.5992 33.1044 9.65303 30.2087 9.65303C27.4414 9.65303 25.8802 11.1099 26.0562 13.3746L29.0695 13.1559C29.0462 13.0162 29.0547 12.873 29.0946 12.7371C29.1345 12.6012 29.2046 12.4761 29.2997 12.3713C29.3948 12.2664 29.5124 12.1845 29.6437 12.1317C29.775 12.0788 29.9165 12.0565 30.0577 12.0663C30.23 12.0591 30.4 12.1086 30.5417 12.2072C30.6833 12.3058 30.7889 12.4481 30.8422 12.6124C30.9795 13.416 30.1319 13.6314 28.9945 13.9205C28.3231 14.0911 27.5506 14.2874 26.8201 14.6456C26.4676 14.8435 26.1698 15.1263 25.954 15.4684C25.7381 15.8106 25.611 16.2012 25.584 16.605C25.557 17.0088 25.631 17.4129 25.7994 17.7808C25.9678 18.1487 26.2253 18.4687 26.5484 18.7119C28.0287 19.6657 30.5999 19.3313 31.2964 17.4538C31.5206 18.7672 32.4754 19.2329 33.6621 19.2329ZM30.0995 15.1526C30.4133 15.0244 30.7723 14.8776 31.0934 14.6018H31.0959C31.1405 15.1888 31.0547 15.7783 30.8447 16.3282C30.7269 16.4975 30.5572 16.6238 30.3613 16.6879C30.1653 16.7519 29.9538 16.7503 29.7589 16.6832C29.6472 16.6552 29.5442 16.5998 29.4594 16.5218C29.3745 16.4439 29.3104 16.346 29.273 16.237C29.2355 16.128 29.2258 16.0113 29.2448 15.8976C29.2638 15.7839 29.3109 15.6768 29.3818 15.5859C29.523 15.3882 29.7891 15.2795 30.0995 15.1526ZM61.9363 19.2329C64.2666 19.2329 64.681 17.3206 64.6058 16.0169L63.3735 15.9313V16.3815C63.3735 17.0035 63.1197 17.0788 62.9964 17.0788C62.8255 17.0788 62.607 16.9681 62.607 16.3815V12.4535C62.607 10.5992 61.3632 9.65303 58.4719 9.65303C55.7047 9.65303 54.1435 11.1099 54.3169 13.3746L57.3456 13.1559C57.3222 13.0164 57.3307 12.8733 57.3704 12.7375C57.4101 12.6017 57.48 12.4767 57.575 12.3718C57.6699 12.267 57.7873 12.185 57.9184 12.1321C58.0495 12.0792 58.1908 12.0567 58.3319 12.0663C58.5044 12.0584 58.6747 12.1076 58.8166 12.2063C58.9584 12.305 59.0637 12.4477 59.1164 12.6124C59.2537 13.416 58.4062 13.6314 57.2687 13.9205C56.5973 14.0911 55.8248 14.2874 55.0944 14.6456C54.7416 14.8433 54.4438 15.126 54.2277 15.468C54.0117 15.8101 53.8843 16.2007 53.8571 16.6045C53.83 17.0083 53.9038 17.4124 54.0721 17.7804C54.2403 18.1484 54.4976 18.4686 54.8206 18.7119C56.3157 19.6657 58.8722 19.3313 59.5687 17.4538C59.7948 18.7672 60.7496 19.2329 61.9363 19.2329ZM58.3608 15.1552C58.6738 15.0271 59.0322 14.8804 59.3547 14.605H59.3573C59.4019 15.192 59.3161 15.7815 59.1061 16.3314C58.9883 16.5007 58.8186 16.627 58.6226 16.6911C58.4267 16.7551 58.2152 16.7535 58.0203 16.6864C57.9086 16.6585 57.8056 16.603 57.7207 16.5251C57.6359 16.4471 57.5718 16.3492 57.5343 16.2402C57.4969 16.1312 57.4872 16.0145 57.5062 15.9008C57.5252 15.7871 57.5723 15.68 57.6431 15.5891C57.7846 15.3911 58.0503 15.2824 58.3608 15.1552ZM13.9298 8.80208C13.4801 8.82524 13.3092 9.14684 13.3092 9.76366V10.4004H15.0696V12.5314H13.3092V18.9788H9.61611V12.5191H8.70891V10.3876H9.61611V9.53983C9.61611 7.73887 11.2827 7.02556 12.9847 7.02556C14.616 7.02556 16.494 7.1259 16.5666 9.29027L14.5228 9.43885C14.5292 9.35723 14.5186 9.27517 14.4917 9.19788C14.4647 9.12059 14.422 9.04975 14.3662 8.98987C14.3105 8.92999 14.2429 8.88237 14.1677 8.85004C14.0926 8.81772 14.0116 8.80138 13.9298 8.80208ZM41.2338 11.8599C40.5226 11.8599 40.2014 12.24 40.3941 12.5744H40.3857C40.5984 12.9393 41.3214 13.0719 42.175 13.2284C43.7822 13.5232 45.8527 13.903 45.8527 16.0773C45.8527 17.7837 44.7014 19.238 41.5088 19.238C39.3019 19.238 37.5999 18.5485 36.6574 17.0788L39.3481 15.5859C39.6147 15.8859 39.9386 16.1293 40.3008 16.3018C40.663 16.4743 41.0561 16.5722 41.4568 16.5899C42.1655 16.5899 42.5252 16.2992 42.3968 15.9133C42.2535 15.4865 41.4757 15.3509 40.5488 15.1893C38.9685 14.9138 36.9549 14.5628 36.9144 12.5642C36.8887 10.7728 38.6337 9.64532 40.9364 9.64532C42.8247 9.64532 44.5189 10.0582 45.3381 11.6585L42.7996 12.7912C42.6483 12.5078 42.4224 12.2711 42.1464 12.107C41.8704 11.9428 41.5549 11.8574 41.2338 11.8599ZM95.3003 11.8599C94.5891 11.8599 94.2646 12.24 94.4605 12.5744L94.4766 12.5867C94.6892 12.9515 95.4122 13.0841 96.2659 13.2407C97.8731 13.5354 99.9436 13.9152 99.9436 16.0895C99.9436 17.7959 98.7897 19.2502 95.5997 19.2502C93.3902 19.2502 91.6882 18.5607 90.7482 17.091L93.4101 15.5833C93.677 15.8837 94.0014 16.1275 94.364 16.3004C94.7266 16.4733 95.1201 16.5717 95.5213 16.5899C96.2274 16.5899 96.5898 16.2992 96.4613 15.9133C96.3171 15.4866 95.5388 15.3509 94.6117 15.1894C93.0306 14.9139 91.0169 14.5631 90.9789 12.5642C90.9532 10.7728 92.7008 9.64532 95.0009 9.64532C96.8892 9.64532 98.5834 10.0582 99.4026 11.6585L96.866 12.7912C96.7147 12.5078 96.4889 12.2711 96.2129 12.107C95.9369 11.9428 95.6213 11.8574 95.3003 11.8599ZM25.0147 14.744V14.6732L25.0109 14.6944C25.0109 11.7473 22.989 9.68905 20.162 9.68905C19.5289 9.67482 18.8995 9.78844 18.3113 10.0231C17.7231 10.2578 17.1881 10.6087 16.7384 11.0549C16.2886 11.5012 15.9333 12.0336 15.6936 12.6203C15.4539 13.207 15.3348 13.8361 15.3433 14.47C15.3357 15.1035 15.4556 15.7322 15.6956 16.3185C15.9356 16.9048 16.291 17.4367 16.7405 17.8828C17.1901 18.3288 17.7247 18.6798 18.3124 18.9148C18.9002 19.1498 19.5292 19.2641 20.162 19.2509C22.4872 19.2509 24.1461 18.0982 24.7494 16.2162L22.0143 16.0201C21.8276 16.2473 21.5866 16.4236 21.3137 16.5326C21.0407 16.6417 20.7447 16.68 20.453 16.644C19.5748 16.644 18.8307 15.9744 18.9111 14.744H25.0147ZM21.3275 13.2215V13.5007H18.9946C18.9779 13.3309 18.9978 13.1596 19.0529 12.9982C19.108 12.8368 19.197 12.6891 19.314 12.5651C19.431 12.4411 19.5732 12.3436 19.731 12.2794C19.8888 12.2151 20.0586 12.1854 20.2288 12.1924C20.372 12.1707 20.5182 12.1818 20.6564 12.2247C20.7947 12.2677 20.9215 12.3415 21.0272 12.4405C21.1329 12.5395 21.2148 12.6612 21.2668 12.7965C21.3189 12.9318 21.3396 13.0771 21.3275 13.2215ZM48.7247 7.68999L50.8565 7.84371H50.8629V10.4326H52.9124V12.5629H50.8616V16.4298C50.8616 17.0164 51.0801 17.127 51.251 17.127C51.3769 17.127 51.6281 17.0511 51.6281 16.4298V15.9667L52.8546 16.0548C52.9118 17.6101 52.4768 19.2708 49.9634 19.2708C48.4979 19.2708 47.2007 18.5382 47.2007 17.0588V12.5629H46.0802V10.4326C48.2948 10.4326 48.7247 8.72683 48.7247 7.68999ZM76.3165 19.0116V6.22799L79.9184 6.47949L79.9338 19.0116H76.3165ZM71.6058 19.2907C73.7022 19.2907 75.2982 17.4538 75.2982 14.4339L75.3014 14.4044C75.3014 11.5029 73.6007 9.66847 71.609 9.66847C71.0301 9.66269 70.4588 9.80103 69.9465 10.071C69.4342 10.3411 68.997 10.7343 68.6741 11.2154C68.7395 10.6895 68.769 10.1598 68.7621 9.62988L68.7473 6.44668L65.2136 6.19519V19.0116H68.7075V17.6351C69.0068 18.1381 69.431 18.5549 69.9389 18.845C70.4468 19.1352 71.021 19.2887 71.6058 19.2907ZM71.4483 13.9859C71.5013 14.1602 71.5181 14.3435 71.4978 14.5246L71.5081 14.5221C71.5188 14.7026 71.4908 14.8834 71.4259 15.0522C71.361 15.221 71.2608 15.374 71.1319 15.5008C71.0031 15.6276 70.8486 15.7253 70.6789 15.7874C70.5091 15.8494 70.3281 15.8744 70.148 15.8606C69.9604 15.8631 69.7745 15.8252 69.6028 15.7494C69.4312 15.6737 69.2778 15.5618 69.1531 15.4215C69.0284 15.2812 68.9353 15.1157 68.8802 14.9362C68.825 14.7567 68.8091 14.5674 68.8334 14.3812C68.8326 14.199 68.869 14.0185 68.9404 13.8509C69.0118 13.6832 69.1166 13.532 69.2485 13.4063C69.3803 13.2807 69.5364 13.1834 69.7072 13.1203C69.878 13.0572 70.0598 13.0297 70.2416 13.0395C70.4233 13.0493 70.6012 13.0961 70.7642 13.1772C70.9272 13.2582 71.072 13.3718 71.1896 13.5108C71.3073 13.6499 71.3953 13.8115 71.4483 13.9859ZM90.5388 14.7311V14.6603L90.5349 14.6816C90.5349 11.7344 88.513 9.67619 85.686 9.67619C85.053 9.66196 84.4235 9.77558 83.8353 10.0103C83.2471 10.2449 82.7121 10.5959 82.2624 11.0421C81.8126 11.4883 81.4573 12.0207 81.2176 12.6074C80.9779 13.1942 80.8588 13.8232 80.8673 14.4571C80.8598 15.0907 80.9796 15.7193 81.2196 16.3056C81.4596 16.8919 81.815 17.4239 82.2646 17.8699C82.7141 18.3159 83.2487 18.6669 83.8365 18.9019C84.4242 19.1369 85.0532 19.2512 85.686 19.238C88.0112 19.238 89.6701 18.0854 90.2734 16.2034L87.5383 16.0072C87.3516 16.2344 87.1106 16.4107 86.8377 16.5198C86.5648 16.6288 86.2687 16.6671 85.9771 16.6311C85.0988 16.6311 84.3548 15.9615 84.4351 14.7311H90.5388ZM86.8515 13.2061V13.4878L84.5186 13.4852C84.5019 13.3155 84.5218 13.1441 84.5769 12.9827C84.632 12.8213 84.7211 12.6737 84.8381 12.5497C84.955 12.4256 85.0972 12.3282 85.255 12.2639C85.4129 12.1996 85.5826 12.17 85.7528 12.177C85.896 12.1553 86.0422 12.1663 86.1805 12.2093C86.3187 12.2523 86.4455 12.326 86.5512 12.4251C86.6569 12.5241 86.7389 12.6458 86.7909 12.7811C86.8429 12.9163 86.8636 13.0616 86.8515 13.2061Z" fill="black"/>
</g>
<defs>
<clipPath id="clip0_1037_868">
<rect width="108.71" height="25.728" fill="white" transform="translate(0.145081 0.527954)"/>
</clipPath>
</defs>
</svg>
