<svg width="119" height="22" viewBox="0 0 119 22" fill="none" xmlns="http://www.w3.org/2000/svg">
<g clip-path="url(#clip0_1037_858)">
<path d="M1.23911 17.6777C0.782364 17.6777 0.540009 17.5405 0.540009 17.2974C0.540009 17.0543 0.692646 16.9078 1.00608 16.9078C1.34316 16.9364 1.68112 16.8639 1.97666 16.6996C2.34719 16.4309 2.56857 15.9727 2.63382 15.3121C2.6478 15.1598 2.66528 14.9249 2.68276 14.6143C2.70024 14.3038 2.72354 13.934 2.74801 13.5153C2.77248 13.0966 2.79928 12.6337 2.82025 12.1197C2.84122 11.6056 2.86453 11.0928 2.89132 10.5554C2.91812 10.0181 2.9391 9.48316 2.96123 8.94236C2.98337 8.40156 3.00202 7.88868 3.01716 7.40022C3.05328 6.18953 3.07309 5.4138 3.07309 5.09165C3.08016 4.83875 3.0555 4.58597 2.99969 4.33919C2.96332 4.17706 2.89522 4.0237 2.79928 3.88794C2.60301 3.66043 2.3262 3.51749 2.02677 3.48903C1.39874 3.4018 1.08647 3.26573 1.08647 3.0843C1.08518 3.02841 1.09669 2.97296 1.12011 2.92217C1.14353 2.87138 1.17825 2.8266 1.22163 2.79123C1.32252 2.71077 1.44916 2.66946 1.57818 2.67493L3.29913 2.82612L4.26856 2.78308C4.3542 2.78256 4.43873 2.80244 4.51513 2.84108C4.59153 2.87971 4.65759 2.93598 4.70783 3.00522C4.85899 3.21443 4.99118 3.43667 5.10282 3.66929L10.4067 14.6399C10.5317 14.3538 10.6937 13.9786 10.8926 13.5141C11.0914 13.0497 11.3159 12.5345 11.566 11.9685C11.8099 11.3994 12.0713 10.7981 12.3502 10.1647L13.1728 8.27247L13.9488 6.46632C14.1989 5.8887 14.4199 5.3762 14.6118 4.92883C14.8005 4.47991 14.9613 4.11473 15.0779 3.82863C15.1944 3.54253 15.2887 3.34482 15.3377 3.22154C15.3969 3.08582 15.4934 2.96967 15.6162 2.88659C15.7577 2.78534 15.9279 2.73196 16.102 2.73424L17.1332 2.77727L18.4475 2.68074C18.994 2.68074 19.2631 2.81449 19.2631 3.08547C19.2631 3.21572 19.1466 3.30527 18.9019 3.35179L18.2879 3.4774C18.1262 3.5128 17.9697 3.56828 17.8218 3.64255C17.6589 3.72914 17.5246 3.86103 17.4353 4.02225C17.346 4.18346 17.3054 4.36708 17.3185 4.55085L17.8789 15.2598C17.9372 16.1995 18.2914 16.7314 18.9416 16.8554C19.1187 16.8847 19.298 16.8995 19.4775 16.8996C19.7933 16.8996 19.9436 17.0299 19.9436 17.2892C19.9436 17.5486 19.7106 17.6765 19.255 17.6765C19.0992 17.6779 18.9435 17.6689 18.7889 17.6498L18.3928 17.5998C18.0374 17.544 17.6783 17.5148 17.3185 17.5125L14.9881 17.6777C14.5023 17.6777 14.2762 17.5428 14.2762 17.2741C14.2762 17.0485 14.4463 16.9345 14.7912 16.9345C15.0437 16.9462 15.2965 16.9183 15.5404 16.852C15.6833 16.8094 15.8069 16.7185 15.89 16.5949C15.9925 16.4216 16.0426 16.0065 16.0426 15.3575V14.3306C16.0426 13.8351 16.0065 12.8272 15.9343 11.3067C15.862 9.78631 15.8107 8.70356 15.7805 8.05848C15.7214 6.68846 15.6667 5.64951 15.6162 4.94162L10.4335 16.8043C10.2436 17.2323 10.0723 17.4486 9.91847 17.4486C9.86537 17.4467 9.8137 17.4309 9.76869 17.4027C9.72368 17.3745 9.68693 17.335 9.66214 17.2881C9.55962 17.1239 9.46626 16.9543 9.38249 16.7799L4.07747 5.88947C3.7986 9.60333 3.65956 12.9989 3.66034 16.0762C3.66034 16.6717 4.14505 16.9717 5.11564 16.9717C5.3778 16.9717 5.50946 17.0787 5.50946 17.2892C5.50946 17.5579 5.26594 17.694 4.79871 17.694L3.02182 17.5288C2.67063 17.5286 2.31998 17.5562 1.97317 17.6114C1.73062 17.6528 1.48517 17.675 1.23911 17.6777ZM26.5862 3.40297L26.0573 3.35877C25.6129 3.35877 25.31 3.60107 25.1484 4.08565C25.0109 4.51751 24.9422 5.26184 24.9422 6.31862V11.7266C24.9108 12.4597 24.9842 13.1936 25.1601 13.9061C25.299 14.3404 25.5063 14.7498 25.7741 15.1191C26.1615 15.6539 26.6727 16.0874 27.264 16.3827C27.8554 16.6779 28.5095 16.8261 29.1706 16.8147C29.9325 16.8354 30.6923 16.7257 31.417 16.4903C31.9691 16.3032 32.4589 15.968 32.8327 15.5215C33.479 14.7353 33.8022 13.4517 33.8022 11.6708L33.7765 6.32095C33.7765 5.24866 33.7229 4.5462 33.6204 4.21358C33.5617 3.95887 33.4353 3.72466 33.2545 3.53555C33.0979 3.41083 32.9012 3.34718 32.7011 3.35645L32.1651 3.40064C31.9006 3.40064 31.7689 3.29364 31.7689 3.08314C31.7689 2.81216 31.9705 2.67841 32.3713 2.67841C32.7228 2.67521 33.0739 2.70441 33.42 2.76564C33.7302 2.82498 34.0455 2.85419 34.3614 2.85287L36.1709 2.67841C36.637 2.67841 36.87 2.81216 36.87 3.08314C36.87 3.29364 36.7384 3.40064 36.4739 3.40064L35.9612 3.35877C35.5173 3.35877 35.233 3.60068 35.0757 4.08565C34.9487 4.50898 34.8881 5.24866 34.8881 6.31862L34.8671 12.2255C34.8671 13.8537 34.3478 15.1842 33.3093 16.217C32.2707 17.2497 30.8795 17.7711 29.1356 17.7812C27.245 17.7812 25.7512 17.2598 24.6544 16.217C23.5343 15.1377 22.9754 13.6394 22.9777 11.7219V6.32327C22.9777 5.26649 22.9226 4.56869 22.8123 4.22986C22.7491 3.96936 22.6166 3.7307 22.4289 3.53904C22.2677 3.41358 22.0669 3.34966 21.8626 3.35877L21.3267 3.40297C21.0645 3.40297 20.9305 3.29597 20.9305 3.08547C20.9305 2.81449 21.1344 2.68074 21.5399 2.68074C21.9377 2.68069 22.3349 2.70984 22.7284 2.76797C23.1303 2.82725 23.5362 2.85641 23.9425 2.85519C24.3565 2.85637 24.7701 2.82721 25.1799 2.76797C25.5749 2.70984 25.9737 2.68069 26.373 2.68074C26.7738 2.68074 26.9719 2.81449 26.9719 3.08547C26.9894 3.29597 26.8484 3.40297 26.5862 3.40297ZM38.633 17.6777C38.1482 17.6777 37.9199 17.5428 37.9199 17.2741C37.9199 17.0625 38.0539 16.9566 38.316 16.9566L38.852 17.0101C39.2913 17.0101 39.5791 16.7671 39.7399 16.2832C39.8618 15.8669 39.924 15.1226 39.9263 14.0503V6.32327C39.9263 5.25098 39.8754 4.54853 39.7737 4.21591C39.7141 3.96101 39.5869 3.72681 39.4055 3.53788C39.2493 3.41229 39.0523 3.34853 38.852 3.35877L38.316 3.40297C38.0539 3.40297 37.9199 3.29597 37.9199 3.08547C37.9199 2.81449 38.1214 2.68074 38.5246 2.68074C38.8761 2.67724 39.2272 2.70645 39.5732 2.76797C39.8657 2.82542 40.163 2.85463 40.4611 2.85519C41.106 2.86301 41.7507 2.82648 42.3906 2.74587C43.2758 2.6284 44.1683 2.57361 45.0612 2.58188C46.0859 2.5857 47.1022 2.7667 48.065 3.11687C49.015 3.44683 49.8887 3.96416 50.6342 4.63808C52.1606 6.03368 52.9242 7.86348 52.9249 10.1275C52.9503 11.1303 52.7631 12.1273 52.3758 13.053C51.9885 13.9787 51.4097 14.8123 50.6773 15.4994C49.1183 16.9865 47.0867 17.7308 44.5823 17.7324C43.9764 17.7324 43.3876 17.7068 42.8159 17.6556C41.7579 17.5602 40.9889 17.5125 40.5159 17.5125L38.633 17.6777ZM41.6473 12.4709C41.6473 13.7626 41.6803 14.9737 41.7463 16.1041C42.7597 16.6199 43.8841 16.8807 45.0216 16.8636C45.9726 16.8495 46.9101 16.6367 47.7737 16.2391C49.2822 15.5738 50.2641 14.3945 50.7193 12.7012C50.9023 11.9399 50.9838 11.1578 50.9616 10.3752C50.964 9.43119 50.7996 8.49417 50.4758 7.60723C50.1831 6.76803 49.7179 5.99913 49.1102 5.34984C47.9217 4.08914 46.3188 3.45763 44.3015 3.4553C42.8598 3.4553 42.0341 3.64526 41.8244 4.02517C41.7116 4.24068 41.6517 4.47984 41.6496 4.72298C41.6496 4.98233 41.6368 5.2347 41.6368 5.48358L41.6473 12.4709ZM57.44 0.465215C57.3921 0.341907 57.3584 0.213529 57.3398 0.0825867C57.3398 0.0244365 57.3957 -0.00463867 57.5099 -0.00463867C57.7346 -0.00439914 57.958 0.0289111 58.1729 0.0942168C58.4001 0.174464 58.5341 0.264016 58.5772 0.368686L66.4246 20.9655C66.4738 21.0883 66.5071 21.2169 66.5237 21.3481C66.5237 21.4063 66.4677 21.4354 66.3594 21.4354C66.248 21.4354 66.1367 21.4284 66.0261 21.4144C65.9154 21.3995 65.8065 21.3734 65.701 21.3365C65.4587 21.2632 65.3305 21.1714 65.2862 21.0632L57.44 0.465215ZM88.2564 2.68074C88.7155 2.68074 88.9451 2.80983 88.9451 3.06802C88.9451 3.32621 88.7924 3.45569 88.4871 3.45646C88.1886 3.43074 87.8912 3.51698 87.6529 3.69837C87.2907 4.10204 87.0183 4.57767 86.8536 5.09398L82.1521 17.4149C81.9703 17.8661 81.7932 18.0929 81.6254 18.0929C81.4145 18.0929 81.2153 17.8347 81.0335 17.316L78.4469 9.71343L75.2275 17.4149C75.0422 17.8661 74.8779 18.0929 74.7416 18.0929C74.5529 18.0929 74.3559 17.8347 74.1497 17.316L69.0521 5.14166C68.8808 4.6846 68.6526 4.25088 68.3728 3.85072C68.2663 3.72509 68.1332 3.62457 67.9831 3.5564C67.833 3.48823 67.6696 3.4541 67.5047 3.45646C67.1715 3.45646 67.0049 3.32543 67.0049 3.06337C67.0078 3.00572 67.0264 2.94996 67.0586 2.90203C67.0908 2.85409 67.1355 2.8158 67.1878 2.79123C67.3344 2.7056 67.503 2.66514 67.6725 2.67493C67.8411 2.67217 68.0097 2.68111 68.177 2.70167C68.3087 2.71912 68.4392 2.74005 68.5732 2.76215C68.935 2.82029 69.3009 2.84945 69.6673 2.84938L71.5642 2.67493C72.0501 2.67493 72.2749 2.7982 72.2749 3.04592C72.2752 3.097 72.265 3.1476 72.245 3.1946C72.225 3.2416 72.1955 3.28401 72.1584 3.31923C72.0407 3.4089 71.8933 3.45049 71.746 3.43553C71.5835 3.43299 71.4212 3.44623 71.2613 3.47507C71.1497 3.49118 71.0428 3.53082 70.9478 3.59137C70.8881 3.63254 70.8405 3.6888 70.8098 3.75441C70.7791 3.82001 70.7664 3.89259 70.773 3.9647C70.8202 4.51897 70.9691 5.05985 71.2123 5.56034L75.189 15.0877L77.9971 8.30736L76.9415 5.25331C76.6979 4.5462 76.4754 4.09612 76.2493 3.89724C75.9523 3.62516 75.5675 3.468 75.1646 3.45414C74.7719 3.45414 74.5727 3.31109 74.5727 3.05639C74.5768 3.00144 74.5946 2.94839 74.6245 2.90208C74.6545 2.85576 74.6955 2.81765 74.7439 2.79123C74.8909 2.70551 75.0599 2.66505 75.2298 2.67493C75.3976 2.67219 75.5654 2.68112 75.732 2.70167C75.8625 2.71912 75.9988 2.74005 76.1375 2.76215C76.4969 2.8203 76.8605 2.84947 77.2246 2.84938L79.6551 2.68074C80.1399 2.68074 80.3682 2.79704 80.3682 3.04127C80.3682 3.2855 80.169 3.40297 79.7763 3.40297C79.0182 3.40297 78.6379 3.63944 78.6356 4.1124C78.6825 4.76564 78.8299 5.40777 79.0726 6.01624L82.1544 14.9958L85.5334 5.60221C85.7007 5.18685 85.8055 4.74909 85.8445 4.30313C85.8445 3.70612 85.3917 3.40762 84.4859 3.40762C84.1752 3.40762 84.0199 3.28705 84.0199 3.04592C84.0199 2.80634 84.2622 2.68539 84.7306 2.68539C84.9981 2.68874 85.2646 2.71795 85.5264 2.77262C85.8859 2.83648 86.2508 2.86569 86.6159 2.85984L88.2564 2.68074ZM93.6605 17.6777C93.1746 17.6777 92.9463 17.5428 92.9463 17.2741C92.9463 17.0625 93.0783 16.9566 93.3424 16.9566L93.8784 17.0101C94.3177 17.0101 94.6066 16.7671 94.7546 16.2832C94.8874 15.8669 94.9535 15.1226 94.9527 14.0503V3.81583H94.6567C93.6228 3.7834 92.5906 3.91931 91.6005 4.21823C91.3616 4.29185 91.1416 4.41655 90.9558 4.58366C90.7701 4.75077 90.6231 4.95627 90.525 5.18585C90.3864 5.5208 90.2384 5.6906 90.0858 5.6906C89.8749 5.6906 89.7677 5.56383 89.7677 5.31727C89.7722 5.23471 89.7887 5.15324 89.8166 5.07537C89.8504 4.98 89.89 4.86719 89.9331 4.73577C90.0506 4.38213 90.1207 4.01454 90.1417 3.64255C90.1408 3.38454 90.1834 3.12822 90.2675 2.88427C90.2864 2.83039 90.321 2.78341 90.3669 2.7494C90.4128 2.7154 90.4679 2.69593 90.525 2.69353C90.6244 2.69136 90.7236 2.70034 90.821 2.72028C90.9084 2.73656 91.0342 2.75866 91.2043 2.78076C91.7534 2.84469 92.3061 2.87382 92.8589 2.86798H99.8056C100.203 2.87529 100.599 2.84099 100.989 2.76564C101.163 2.71862 101.341 2.6894 101.521 2.67841C101.764 2.67841 101.883 2.79471 101.883 3.01801C101.879 3.15826 101.858 3.29744 101.818 3.43204C101.721 3.73584 101.649 4.047 101.603 4.36245C101.57 4.6218 101.541 4.82765 101.511 4.99745C101.49 5.12924 101.457 5.25886 101.412 5.38473C101.354 5.54406 101.267 5.62663 101.148 5.62663C101.102 5.6324 101.056 5.6233 101.015 5.60069C100.975 5.57807 100.943 5.54314 100.924 5.50103C100.874 5.3431 100.839 5.18068 100.82 5.01605C100.794 4.80694 100.729 4.60458 100.628 4.41943C100.546 4.27047 100.425 4.14605 100.279 4.0589C99.8914 3.86856 99.4601 3.78504 99.0296 3.817H96.6783V14.0445C96.6783 15.147 96.7276 15.8564 96.8263 16.1728C96.8846 16.4202 97.0095 16.647 97.1875 16.8287C97.3468 16.9552 97.5469 17.0193 97.7503 17.009L98.2769 16.9555C98.5391 16.9555 98.6731 17.0613 98.6731 17.273C98.6731 17.5416 98.4307 17.6765 97.974 17.6765C97.7163 17.6752 97.4592 17.6534 97.205 17.6114C96.4618 17.4766 95.7027 17.4531 94.9527 17.5416C94.525 17.6121 94.0935 17.6575 93.6605 17.6777ZM103.937 17.6777C103.453 17.6777 103.227 17.5428 103.227 17.2741C103.227 17.0625 103.358 16.9566 103.62 16.9566L104.159 17.0101C104.596 17.0101 104.887 16.7671 105.044 16.2832C105.17 15.8669 105.231 15.1202 105.231 14.0503V6.32327C105.231 5.25098 105.18 4.54853 105.078 4.21591C105.019 3.9612 104.893 3.72698 104.712 3.53788C104.555 3.41335 104.359 3.34972 104.159 3.35877L103.62 3.40297C103.358 3.40297 103.227 3.29597 103.227 3.08547C103.227 2.81449 103.428 2.68074 103.829 2.68074C104.212 2.67953 104.595 2.7087 104.974 2.76797C105.726 2.88426 106.491 2.88426 107.243 2.76797C107.706 2.70256 108.173 2.6734 108.641 2.68074C109.256 2.68866 109.868 2.77982 110.459 2.95172C111.052 3.10867 111.612 3.37405 112.109 3.73442C112.55 4.04429 112.908 4.45789 113.15 4.93864C113.393 5.4194 113.514 5.95248 113.501 6.49075C113.497 7.75997 112.974 8.85281 111.93 9.76926C111.59 10.0632 111.215 10.3133 110.812 10.5136L114.377 15.6738C114.779 16.2646 115.221 16.6225 115.704 16.7473C115.878 16.7892 116.054 16.8184 116.231 16.8345C116.602 16.8706 116.789 16.9938 116.789 17.202C116.789 17.4102 116.588 17.5125 116.184 17.5125H114.075C113.571 17.5125 113.115 17.1846 112.706 16.5286L109.95 12.1185C109.764 11.8045 109.525 11.525 109.244 11.2928C108.927 11.1075 108.561 11.0231 108.195 11.0509C107.71 11.0509 107.312 11.0509 106.96 11.0823V14.0445C106.96 15.1458 107.011 15.8553 107.108 16.1728C107.167 16.4198 107.292 16.6464 107.469 16.8287C107.629 16.9555 107.831 17.0195 108.035 17.009L108.561 16.9555C108.823 16.9555 108.955 17.0613 108.955 17.273C108.955 17.5416 108.712 17.6765 108.255 17.6765C107.999 17.6753 107.742 17.6535 107.489 17.6114C106.746 17.4766 105.987 17.4531 105.236 17.5416C104.807 17.6133 104.373 17.6587 103.937 17.6777ZM106.952 10.1182C107.407 10.1685 107.864 10.1945 108.322 10.1961H109.017C109.35 10.2028 109.681 10.1419 109.99 10.0169C110.299 9.89196 110.579 9.70561 110.813 9.4692C111.383 8.9098 111.669 8.14221 111.669 7.17343C111.669 6.01042 111.313 5.08002 110.607 4.40548C110.265 4.08217 109.863 3.82999 109.423 3.66366C108.983 3.49733 108.514 3.42017 108.043 3.43669C107.761 3.41794 107.478 3.47032 107.221 3.58905C107.132 3.64311 107.06 3.72106 107.013 3.81401C106.966 3.90696 106.947 4.01117 106.956 4.11473L106.952 10.1182ZM118.455 4.47991C118.466 4.82565 118.374 5.16687 118.19 5.46018C118.007 5.75349 117.74 5.98567 117.424 6.1272C117.107 6.26873 116.756 6.31323 116.414 6.25504C116.073 6.19684 115.756 6.03859 115.505 5.80038C115.254 5.56218 115.079 5.25478 115.003 4.91725C114.927 4.57972 114.954 4.22729 115.079 3.90477C115.204 3.58224 115.423 3.30417 115.707 3.10589C115.991 2.90762 116.327 2.79809 116.674 2.79123H116.723C117.171 2.78185 117.606 2.9502 117.93 3.25946C118.255 3.56872 118.444 3.99372 118.455 4.44153V4.47991ZM115.403 4.47991C115.397 4.65289 115.426 4.82521 115.488 4.98698C115.55 5.14874 115.643 5.29676 115.762 5.42255C115.881 5.54833 116.024 5.6494 116.182 5.71994C116.34 5.79049 116.511 5.82913 116.684 5.83365H116.731C117.081 5.81917 117.411 5.67034 117.653 5.41826C117.896 5.16619 118.031 4.83039 118.031 4.48107C118.031 4.13175 117.896 3.79595 117.653 3.54388C117.411 3.29181 117.081 3.14297 116.731 3.1285C116.558 3.12681 116.386 3.15922 116.225 3.22389C116.064 3.28855 115.917 3.3842 115.794 3.50537C115.67 3.62655 115.571 3.77087 115.503 3.9301C115.435 4.08933 115.4 4.26035 115.398 4.43339V4.47991H115.403ZM116.451 5.36961H116.059V3.67395C116.274 3.63522 116.492 3.6173 116.711 3.62045C116.916 3.6049 117.12 3.6485 117.301 3.74605C117.355 3.79138 117.397 3.84832 117.426 3.91258C117.455 3.97684 117.468 4.04675 117.466 4.11705C117.458 4.21139 117.42 4.30066 117.357 4.37136C117.294 4.44206 117.21 4.49037 117.117 4.50898V4.53573C117.201 4.56963 117.274 4.6259 117.329 4.69847C117.384 4.77104 117.417 4.85713 117.426 4.94744C117.444 5.09492 117.486 5.23843 117.551 5.37193H117.126C117.062 5.24045 117.016 5.10072 116.991 4.95674C116.962 4.77299 116.857 4.68809 116.641 4.68809H116.454L116.451 5.36961ZM116.451 4.40082H116.639C116.854 4.40082 117.032 4.32756 117.032 4.15776C117.032 3.98796 116.915 3.89957 116.67 3.89957C116.597 3.8984 116.523 3.90543 116.451 3.9205V4.40082Z" fill="black"/>
</g>
<defs>
<clipPath id="clip0_1037_858">
<rect width="117.92" height="21.44" fill="white" transform="translate(0.540009)"/>
</clipPath>
</defs>
</svg>
