<svg width="77" height="17" viewBox="0 0 77 17" fill="none" xmlns="http://www.w3.org/2000/svg">
<path d="M9.72716 4.63188C9.47775 3.59408 9.0923 2.73677 8.52546 2.12763C7.95862 1.49593 7.27841 1.06727 6.46216 0.819104C5.69126 0.593495 4.69362 0.45813 3.49192 0.45813H0.0228577V16.4989H3.46925C4.60293 16.4989 5.55522 16.3861 6.32612 16.1379C7.1197 15.8897 7.82258 15.4836 8.41209 14.8745C9.00161 14.2654 9.43241 13.4306 9.70449 12.3702C9.9539 11.3324 10.0899 10.0239 10.0899 8.48978C10.0899 6.93309 9.9539 5.64712 9.72716 4.63188ZM7.50515 12.4379C7.18772 13.2952 6.73425 13.8818 6.14473 14.1977C5.53254 14.5135 4.6256 14.6714 3.46925 14.6714H1.99546V2.30812H3.51459C4.67095 2.30812 5.55522 2.46604 6.16741 2.78189C6.75692 3.07518 7.21039 3.66177 7.52782 4.54164C7.86793 5.44407 8.02664 6.77516 8.02664 8.48978C8.02664 10.2044 7.84525 11.5355 7.50515 12.4379Z" fill="black"/>
<path d="M52.7163 8.37698H45.6648V2.33068H53.6913V0.45813H43.6922V16.4989H45.6648V10.2044H52.7163V8.37698Z" fill="black"/>
<path d="M66.978 0.45813V16.4989H68.9506V10.2044H76.0021V8.37698H68.9506V2.33068H76.9771V0.45813H66.978Z" fill="black"/>
<path d="M23.354 2.30812H25.8028V14.6714H23.354V16.4989H30.4055V14.6714H27.7754V2.30812H30.4282V0.45813H23.354V2.30812Z" fill="black"/>
</svg>
