<svg width="79" height="36" viewBox="0 0 79 36" fill="none" xmlns="http://www.w3.org/2000/svg">
<path d="M48.4473 23.874C49.397 18.0037 51.1852 7.13646 51.5995 4.91682C52.0863 4.67268 55.6634 4.07763 57.2152 3.81942C57.8914 3.70686 58.3799 3.62576 58.5644 3.58769C58.7266 3.55375 58.9029 3.52479 59.0899 3.49417C59.561 3.41637 60.0947 3.32782 60.5148 3.14161C61.6679 2.62932 62.6942 1.1868 63.246 0.412164L63.4874 0.0728455L63.0739 0.115053C62.4858 0.174641 61.878 0.24416 61.2684 0.319472C57.3412 0.805276 53.3737 1.56336 49.9637 2.23621C47.9466 2.63428 45.88 3.06961 43.8208 3.52975C43.1619 3.67707 42.4824 3.80204 41.7633 3.93445C40.116 4.23736 38.4127 4.55102 36.9161 5.15765C36.5735 5.29669 36.3189 5.45808 36.0636 5.69808C35.7687 5.97533 35.4524 6.5381 35.3866 6.90225C35.3273 7.23163 35.3314 7.54695 35.3997 7.86723L35.403 7.8813C35.4648 8.09317 35.6238 8.2049 35.861 8.2049C35.9351 8.2049 36.0183 8.19414 36.1171 8.17179C37.0849 7.93096 42.3679 6.82942 43.9427 6.50831L47.0208 5.88346C47.1476 5.85781 47.3041 5.82719 47.4853 5.79077C46.9656 8.65594 46.1823 13.3485 45.8652 15.6277L45.5876 17.7315C45.5456 18.0617 45.4789 18.5773 45.399 19.198C45.2095 20.6637 44.946 22.7087 44.7483 24.3043C43.8826 24.4094 43.0169 24.5178 42.1505 24.6296C42.8242 23.7978 43.3316 22.7823 43.7031 21.5476C44.2623 19.6921 42.9123 18.6766 41.606 17.6951C40.9965 17.2374 40.3672 16.764 39.9068 16.2012C39.3805 15.5424 39.6712 14.5642 40.0081 13.8599C40.63 12.5581 41.7156 11.5062 42.0574 11.3854C42.0656 11.6651 41.8095 12.5267 41.6505 13.0596C41.522 13.49 41.4017 13.8963 41.335 14.2017C41.1654 14.9755 41.3334 16.0183 43.0911 16.5952C43.2319 16.6432 43.3555 16.6663 43.4691 16.6663C43.8991 16.6663 44.1256 16.3221 44.2755 16.02C44.7837 14.9706 45.4632 12.9214 45.6238 11.6626C45.7375 10.8805 45.754 9.98011 45.0217 9.24271C44.5325 8.72546 43.619 8.21814 42.746 7.98144C42.5285 7.92599 42.3028 7.89786 42.0772 7.89786C41.214 7.89786 40.4727 8.29924 40.0007 8.63691C38.5206 9.73348 36.9457 11.7744 36.1707 13.6017C35.4261 15.3844 35.6468 17.1546 36.7612 18.3373C37.0924 18.6857 37.6409 18.9687 38.2216 19.2692C39.079 19.7128 40.0518 20.2159 40.2783 20.9591C40.5756 21.9316 39.7833 22.9346 39.546 23.1606C38.8657 23.7126 38.3674 23.9923 38.0667 23.9923C37.7661 23.9923 37.6319 23.6712 37.4309 23.1043C37.2439 22.5746 37.0108 21.915 36.4441 21.4731C36.1699 21.2662 35.7687 21.152 35.3141 21.152C34.7919 21.152 34.2705 21.2976 33.8438 21.5633C33.6758 21.67 33.4452 21.8471 33.3908 22.1509C33.3299 22.4902 33.5012 22.9023 33.9451 23.4858C34.3356 24.0055 34.5662 24.6089 34.7886 25.1923C34.8487 25.3496 34.9088 25.5052 34.9706 25.6574C34.0415 25.8056 33.1133 25.9595 32.1875 26.1217C30.6003 26.3932 28.9521 26.658 27.2076 26.9386C25.3577 27.2357 23.4847 27.5369 21.6306 27.8539C22.0968 24.9697 22.7154 21.2819 23.198 18.5483C23.5637 18.4722 23.9344 18.3952 24.3034 18.3182C23.9196 20.1878 23.9187 21.8256 24.3026 23.067C24.5637 23.9418 25.2012 24.5774 25.669 24.8563C26.2966 25.2263 27.2554 25.4679 28.1729 25.4861C28.2092 25.4861 28.2454 25.487 28.2817 25.487C29.5946 25.487 30.6274 25.0309 31.531 24.0527C34.3479 20.979 35.8379 15.3877 35.651 11.7586C35.5949 10.6935 35.2556 9.91639 34.5835 9.31223C33.9904 8.77926 32.8793 8.40683 31.7542 8.3638C31.7147 8.36132 31.6743 8.36049 31.6331 8.36049C30.7568 8.36049 29.6547 8.81898 28.9529 9.4761C27.5165 10.8201 26.2209 12.8039 25.2992 15.0699C24.7737 15.1651 24.2663 15.2594 23.7721 15.3521C24.1543 13.2599 24.4714 11.6088 24.6913 10.5644C24.8289 9.87004 24.674 9.52658 24.1041 9.2543C23.5777 8.99278 22.8834 8.80491 22.2442 8.75112C22.1726 8.74615 22.1042 8.74284 22.04 8.74284C21.4403 8.74284 21.1455 9.01595 21.0227 9.68383C20.8934 10.3393 20.4989 12.736 19.9643 16.106C19.3178 16.2409 18.672 16.38 18.0007 16.5281C18.616 12.9678 19.3062 9.03747 19.452 8.3729C19.5912 7.66613 19.4545 7.37315 18.8376 7.06694C18.2939 6.80707 17.4242 6.60183 16.8847 6.54058C16.7924 6.529 16.7109 6.5232 16.6351 6.5232C16.1154 6.5232 15.8287 6.80376 15.6772 7.46419C15.3592 8.94312 14.4919 13.9485 13.945 17.4592C13.1576 17.6446 11.7607 17.9632 10.727 18.1991C10.1117 18.3398 9.66775 18.4407 9.59115 18.4598C8.75843 18.6551 7.34091 19.0581 6.50819 19.3668C6.1013 19.5059 5.71006 19.6929 5.77925 20.3103C5.92174 21.632 6.49089 22.275 7.51964 22.275C7.57318 22.275 7.62919 22.2734 7.68602 22.2701C6.89943 23.8814 5.97116 25.021 5.42755 25.021C5.39048 25.021 5.35671 25.0152 5.32459 25.0045C5.07667 24.9167 4.82545 24.0089 4.86004 22.2229C4.89134 20.5908 5.14585 18.814 5.52391 17.5842C6.73799 13.6332 8.61017 10.2946 9.61257 10.2946C9.68999 10.2946 9.76 10.3161 9.82754 10.36C10.1265 10.557 10.1422 11.3589 10.1554 12.0665C10.1677 12.7336 10.1801 13.3642 10.4 13.725C10.7838 14.354 11.5128 14.8853 12.0193 15.1493L12.1857 15.2362L12.2722 15.0691C12.7309 14.1835 13.3248 12.8511 13.5472 11.5335C13.8025 10.024 13.5151 8.88353 12.6947 8.14614C12.0621 7.57757 10.923 7.17618 9.86296 7.14722C9.81025 7.14556 9.75671 7.14391 9.70235 7.14391C9.17026 7.14391 8.15057 7.25232 7.29726 7.97731C5.58322 9.4281 3.82058 12.6458 2.58098 16.5861C1.42291 20.2672 0.984721 23.7614 1.46327 25.4836C1.65683 26.2152 2.19221 26.9394 2.83302 27.3309C3.58831 27.7662 4.38726 28.0062 5.27352 28.0658C6.06835 28.1295 6.84671 27.9433 7.56824 27.5187C7.56083 27.5634 7.55341 27.6065 7.546 27.6478C7.42245 28.3654 7.36644 28.6923 7.48752 29.183C7.62013 29.6043 7.74615 29.8526 8.06656 30.0413L8.10444 30.0628C8.34825 30.2051 8.50968 30.2995 8.69748 30.2995C8.79961 30.2995 8.90339 30.2713 9.022 30.2101C9.38935 30.0214 9.62163 29.5315 9.8679 29.0126C9.89838 28.9488 9.92885 28.8851 9.95933 28.8206L9.96674 28.8032C10.6784 26.8393 10.8102 26.3808 11.1297 25.2726C11.194 25.0508 11.2648 24.8025 11.3505 24.5104C11.5004 23.9981 11.6223 23.6265 11.7401 23.2673C11.8645 22.8899 11.9814 22.5332 12.1173 22.0532C12.2656 21.5302 12.3694 21.0088 12.4147 20.7613C12.7853 20.6835 13.1527 20.6066 13.506 20.5329L13.3792 21.4929C13.1675 23.1581 13.0093 24.6097 12.9344 25.5821C12.8841 26.3137 12.9772 26.7615 13.609 27.0338C14.0521 27.2191 14.7209 27.3582 15.3148 27.3896C15.351 27.3913 15.3856 27.3921 15.4185 27.3921C15.9877 27.3921 16.2299 27.1562 16.3122 26.5248C16.3847 26.0042 16.8303 23.3401 17.4497 19.7219L19.0163 19.4041C19.144 19.3784 19.2922 19.3486 19.4578 19.3155C19.1448 21.3216 18.4307 25.9123 18.0485 28.4953C16.1236 28.8611 14.2522 29.255 12.4871 29.692C11.8414 29.8402 11.1718 29.966 10.5244 30.0868C9.21556 30.3318 7.86229 30.585 6.58067 31.0485C4.78509 31.6965 3.10894 32.6515 1.59835 33.8855C1.32242 34.1114 1.05144 34.3465 0.810105 34.6105C0.652786 34.7826 0.286257 35.0946 0.386743 35.3595C0.476522 35.5953 1.20793 35.2676 1.40479 35.2163C1.94429 35.0756 2.4879 34.9523 3.03234 34.8298C4.6286 34.4714 6.23473 34.1594 7.82852 33.7903C10.512 33.168 13.3108 32.5671 16.1475 32.0044C16.8237 31.8703 17.5024 31.7379 18.1852 31.6079C18.2561 31.6634 18.3376 31.7163 18.4331 31.766C18.9446 32.03 19.5756 32.0879 20.1249 32.1103C20.162 32.1119 20.1966 32.1128 20.2304 32.1128C20.8621 32.1128 21.0269 31.7958 21.0969 31.2521C21.1059 31.1916 21.1158 31.1271 21.1249 31.0617C24.8964 30.3798 28.8055 29.7442 32.9568 29.1392C36.6336 28.6029 40.4479 28.0947 44.5794 27.5907C44.6799 27.8051 44.8562 27.9706 45.151 28.0972C45.5942 28.2818 46.263 28.4216 46.8569 28.4531C46.8931 28.4547 46.9277 28.4556 46.9606 28.4556C47.5298 28.4556 47.7719 28.2197 47.8543 27.5882C47.8634 27.5245 47.8807 27.4095 47.9045 27.2539C48.0141 27.2456 48.122 27.2382 48.2332 27.2299C51.3466 27.004 54.876 26.7474 57.3956 24.6428C57.7835 24.3184 58.1303 23.946 58.4268 23.5363C58.538 23.3824 58.6451 23.2127 58.6756 23.0182L58.7134 22.7757L56.4821 23.0099C53.8283 23.2872 51.1432 23.5686 48.4449 23.8723L48.4473 23.874ZM28.4151 17.4509C28.9249 17.3408 29.2346 17.2713 29.3623 17.239C30.3186 16.9858 30.7856 16.6796 30.9759 16.1805C31.0401 16.0076 31.0722 15.8329 31.1019 15.6641C31.1266 15.5284 31.1496 15.3993 31.1875 15.2933C31.3152 14.9358 31.3539 14.6751 31.1801 14.4103C31.0961 14.2704 30.9775 14.1281 30.7403 14.1281C30.6736 14.1281 30.5986 14.1388 30.4998 14.1612C30.2387 14.2059 29.9842 14.2497 29.7338 14.2928C30.6645 12.52 31.5071 11.5683 31.8522 11.5683C31.8613 11.5683 31.8703 11.5691 31.8802 11.5716C31.8934 11.5741 31.9338 11.5824 31.9807 11.6651C32.3818 12.3595 31.9058 15.2726 31.2114 17.4128C30.1481 20.7009 28.8673 22.4745 28.2026 22.4745C28.168 22.4745 28.1359 22.4695 28.1029 22.4596C28.0239 22.4356 27.958 22.3718 27.902 22.2643C27.5486 21.5914 27.7693 19.5348 28.4143 17.4517L28.4151 17.4509ZM78.0901 13.8301C77.5901 13.053 76.8537 12.4836 76.4057 11.6842C75.9411 10.8549 75.7608 9.89983 75.7632 8.95471C75.7665 7.86806 75.7764 6.77976 75.7929 5.69063C75.8291 3.23264 74.849 1.81661 72.817 1.61467C72.0065 1.5344 71.1277 1.62626 70.2711 1.74626C68.3626 2.01358 66.871 3.09112 66.0572 4.8531C65.5474 5.95712 65.2154 7.13729 64.7146 8.24628C64.4099 8.92078 64.0186 9.55389 63.5343 10.1134C63.2889 10.3964 63.0212 10.6604 62.7379 10.9062C62.3779 11.2182 62.1918 11.3026 61.7198 11.3548C61.9496 11.6039 62.1942 11.6825 62.5171 11.7893C62.6127 11.8207 63.4569 12.0582 63.494 11.9374C62.695 14.2779 60.14 15.7882 57.8577 16.2112C58.2637 16.8617 58.9655 17.34 59.687 17.5693C60.6021 17.8597 61.831 17.364 62.7848 17.5858C63.9783 17.8631 64.7352 18.8976 63.3507 20.0032C64.554 20.1679 65.6989 20.067 66.731 19.3503C67.4632 18.8421 68.6657 18.0104 69.5709 18.0948C70.0907 18.1428 71.0725 19.0738 70.1821 19.7384C70.2908 19.7848 70.6895 19.9048 71.0165 19.865C72.0856 19.7359 72.9957 19.3825 73.8803 18.78C74.7814 18.1668 75.3506 17.2763 76.2451 16.6804C76.7096 16.3709 77.7952 16.1077 78.1139 17.2059C78.1411 17.2995 78.1477 17.4004 78.1477 17.4973C78.8091 16.3941 78.7861 14.9135 78.0901 13.8326V13.8301ZM69.4713 9.03995C67.978 9.16492 67.3256 6.0854 68.4351 5.77919C69.5446 5.47297 72.6959 8.11634 72.6959 8.11634C72.6959 8.11634 70.9646 8.91498 69.4713 9.03995ZM74.6612 8.37704C73.8523 8.3969 72.8771 8.06834 72.8771 8.06834C72.8771 8.06834 74.4165 6.46693 75.0302 6.56707C75.6438 6.66721 75.47 8.358 74.6612 8.37704Z" fill="black"/>
</svg>
