<svg width="131" height="24" viewBox="0 0 131 24" fill="none" xmlns="http://www.w3.org/2000/svg">
<mask id="mask0_1037_862" style="mask-type:luminance" maskUnits="userSpaceOnUse" x="0" y="0" width="131" height="24">
<path d="M0.108002 0.127991H130.892V23.712H0.108002V0.127991Z" fill="white"/>
</mask>
<g mask="url(#mask0_1037_862)">
<path fill-rule="evenodd" clip-rule="evenodd" d="M7.98245 15.8467V7.98932H15.8577V15.8475L7.98245 15.8467ZM7.98245 15.8491C3.63447 15.8491 0.108002 12.3304 0.108002 7.98775C0.108002 3.64908 3.63447 0.127991 7.98245 0.127991C12.3328 0.127991 15.8569 3.64672 15.8577 7.98697C20.2072 7.98697 23.7321 11.5065 23.7321 15.8467C23.7321 20.1878 20.2057 23.7081 15.8577 23.7081C11.5081 23.7081 7.98324 20.1885 7.98245 15.8491Z" fill="black"/>
<path d="M31.3818 11.9223C31.3818 7.53807 34.6224 4.30156 39.0166 4.30156C43.41 4.30156 46.6287 7.5365 46.6287 11.9223C46.6287 16.3082 43.3873 19.5423 39.0166 19.5423C34.6452 19.5423 31.3818 16.3066 31.3818 11.9223ZM43.4085 11.9223C43.4085 9.13471 41.5532 7.04831 38.9939 7.04831C36.4346 7.04831 34.6013 9.13471 34.6013 11.9223C34.6013 14.71 36.4354 16.7751 38.9939 16.7751C41.5517 16.7751 43.4085 14.71 43.4085 11.9223ZM47.61 23.7159V8.64573H50.5742V9.81628C51.2132 8.98613 52.2791 8.47514 53.6668 8.47514C56.6733 8.47514 58.5919 10.6677 58.5919 14.0095C58.5919 17.3522 56.5018 19.5439 53.4107 19.5439C52.1945 19.5439 51.1506 19.1406 50.5742 18.4166V23.7167H47.61V23.7159ZM55.6701 14.0103C55.6701 12.2006 54.6042 11.0088 53.0465 11.0088C51.4905 11.0088 50.4027 12.2006 50.4027 14.0103C50.4027 15.8192 51.4482 16.9898 53.0473 16.9898C54.6465 16.9898 55.6701 15.798 55.6701 14.0103ZM69.8566 15.7264C69.4298 18.0471 67.3834 19.5368 64.7388 19.5368C61.0917 19.5368 59.2153 16.6832 59.2153 13.9804C59.2153 11.2777 60.8787 8.46728 64.525 8.46728C68.1721 8.46728 69.8347 11.2549 69.8347 13.7037C69.8347 14.1078 69.8143 14.4277 69.7932 14.6628H62.073C62.2868 16.1737 63.2453 17.11 64.7388 17.11C65.9323 17.11 66.7217 16.6415 66.9559 15.7264H69.8566ZM62.1153 12.7894H66.8713C66.7867 11.5977 65.955 10.6394 64.525 10.6394C63.1819 10.6394 62.3706 11.2997 62.1153 12.7894ZM70.6084 19.3725V8.64495H73.5937V10.1355C74.1905 9.09226 75.3855 8.47514 76.8563 8.47514C79.2871 8.47514 80.8652 10.2211 80.8652 12.6904V19.3741H77.8798V13.3507C77.8798 12.052 77.0482 11.1158 75.8108 11.1158C74.5108 11.1158 73.5937 12.1173 73.5937 13.5001V19.3749H70.6084V19.3725ZM95.3086 5.47133H98.2727V8.64337H101.152V11.1118H98.2727V15.1557C98.2727 16.1989 98.8264 16.6887 99.7866 16.6887H101.152V19.3709H99.3809C96.9077 19.3709 95.3086 17.9661 95.3086 15.4749V11.1118H92.8644V8.64337H95.3086V5.47133ZM101.336 14.0103C101.336 10.817 103.703 8.47593 107.008 8.47593C110.313 8.47593 112.679 10.817 112.679 14.0103C112.679 17.2028 110.313 19.5447 107.008 19.5447C103.703 19.5447 101.336 17.2028 101.336 14.0103ZM109.694 14.0103C109.694 12.2219 108.607 11.0088 107.008 11.0088C105.408 11.0088 104.321 12.2226 104.321 14.0103C104.321 15.7972 105.408 16.9898 107.008 16.9898C108.607 16.9898 109.694 15.776 109.694 14.0103ZM120.357 11.1126H118.587C117.116 11.1126 116.454 12.3264 116.454 14.155V19.3709H113.469V8.64337H116.454V10.4318C117.03 9.09068 117.84 8.64337 119.141 8.64337H120.357V11.1126ZM130.892 15.7264C130.465 18.0471 128.419 19.5368 125.774 19.5368C122.127 19.5368 120.251 16.6832 120.251 13.9804C120.251 11.2777 121.914 8.46728 125.561 8.46728C129.208 8.46728 130.871 11.2549 130.871 13.7037C130.871 14.1078 130.85 14.4277 130.829 14.6628H123.109C123.322 16.1737 124.282 17.11 125.774 17.11C126.968 17.11 127.759 16.6415 127.992 15.7264H130.892ZM123.151 12.7894H127.907C127.822 11.5977 126.99 10.6394 125.561 10.6394C124.217 10.6394 123.408 11.2997 123.151 12.7894Z" fill="black"/>
<path d="M85.358 8.51602C85.358 7.64341 86.1474 7.04674 87.4059 7.04674C88.6644 7.04674 89.5423 7.66778 89.778 8.64337H92.8644C92.62 6.00668 90.4946 4.30156 87.4059 4.30156C84.3172 4.30156 82.2458 6.04677 82.2458 8.51681C82.2458 14.3704 89.9864 12.1346 89.9864 15.0504C89.9864 16.1785 89.0262 16.7743 87.5978 16.7743C86.0198 16.7743 85.0173 15.8153 84.8897 14.3059H81.8198C81.9474 17.4772 84.2084 19.5415 87.5994 19.5415C90.9903 19.5415 93.2074 17.7971 93.2074 15.0079C93.2074 9.11191 85.3604 11.6236 85.3604 8.51681L85.358 8.51602Z" fill="black"/>
</g>
</svg>
