<svg width="77" height="37" viewBox="0 0 77 37" fill="none" xmlns="http://www.w3.org/2000/svg">
<g clip-path="url(#clip0_1037_865)">
<g clip-path="url(#clip1_1037_865)">
<path d="M33.7997 9.73069C33.7484 9.49467 33.6809 9.26247 33.5978 9.03571C33.5401 8.88741 33.4664 8.74583 33.3782 8.61344C33.2759 8.44614 33.117 8.32126 32.9304 8.26156C32.7064 8.22629 32.4782 8.22629 32.2542 8.26156C32.1846 8.27816 32.1232 8.31928 32.0813 8.37741C32.0394 8.43554 32.0198 8.50682 32.0259 8.57826V16.4957C32.0259 16.6541 32.1313 16.786 32.2542 16.7772C32.542 16.7594 32.8189 16.6609 33.0533 16.4929C33.2878 16.3248 33.4704 16.0942 33.5802 15.8271C33.6924 15.5812 33.7692 15.3205 33.8085 15.053C33.87 14.7187 33.9227 14.3932 33.9666 13.9445C34.0105 13.4959 34.028 12.9856 34.0193 12.3874C34.0105 11.7892 34.0193 11.3318 34.0193 10.9271C34.0193 10.5224 33.8612 10.021 33.7997 9.73069V9.73069ZM12.1276 12.9593C11.9945 13.0091 11.8805 13.0996 11.8017 13.2181C11.7229 13.3365 11.6833 13.4768 11.6886 13.619V18.2904C11.6909 18.3588 11.7196 18.4237 11.7688 18.4713C11.8179 18.5189 11.8836 18.5455 11.952 18.5455C12.3033 18.5455 12.9004 18.3431 13.1463 17.2171C13.4278 16.0469 13.4667 14.8313 13.2604 13.6454C13.0058 12.6953 12.4174 12.7833 12.1276 12.9593ZM44.2406 9.84505C44.1352 9.84505 44.0913 9.91543 44.065 10.2497C44.0387 10.584 43.1869 19.8387 43.1166 20.1905C43.115 20.2452 43.1338 20.2985 43.1693 20.3401C43.2122 20.3731 43.2645 20.3916 43.3186 20.3929L45.1539 20.3313C45.2068 20.3227 45.2558 20.2981 45.2944 20.2609C45.3149 20.2405 45.3304 20.2156 45.3396 20.188C45.3487 20.1605 45.3513 20.1313 45.3471 20.1026C45.3471 20.1026 44.4689 10.6632 44.4689 10.2409C44.4689 9.81866 44.3372 9.82746 44.2406 9.84505V9.84505ZM22.1207 11.5253C22.1207 11.3582 22.0768 11.1998 21.9538 11.1998C21.8309 11.1998 21.7958 11.323 21.7694 11.5605C21.7431 11.798 21.506 13.8654 21.2513 15.9591C21.0757 17.437 20.9001 18.7214 20.8386 19.2668C20.8355 19.3221 20.8524 19.3766 20.8864 19.4203C20.9203 19.4639 20.9688 19.4938 21.023 19.5044C21.585 19.5835 22.1207 19.6275 22.6915 19.6627C22.7187 19.665 22.746 19.6614 22.7718 19.6523C22.7975 19.6432 22.821 19.6288 22.8408 19.6099C22.8606 19.5909 22.8757 19.5674 22.8849 19.5414C22.894 19.5155 22.897 19.4877 22.8934 19.4604L22.7968 18.6862C22.5861 16.4253 22.1295 11.6573 22.1207 11.5253ZM55.463 10.2321C55.2162 10.0005 54.9137 9.83679 54.5849 9.75708C54.5591 9.74844 54.5317 9.74625 54.5048 9.75068C54.478 9.75512 54.4527 9.76605 54.4311 9.78252C54.4094 9.799 54.3921 9.82052 54.3807 9.84522C54.3692 9.86991 54.364 9.89703 54.3654 9.92423V26.4014C54.364 26.4285 54.3692 26.4557 54.3807 26.4804C54.3921 26.5051 54.4094 26.5266 54.4311 26.5431C54.4527 26.5595 54.478 26.5705 54.5048 26.5749C54.5317 26.5793 54.5591 26.5771 54.5849 26.5685C54.9115 26.4832 55.2127 26.3202 55.463 26.0935C55.6915 25.8099 55.86 25.4827 55.9581 25.1318C56.0563 24.7809 56.082 24.4137 56.0338 24.0525V11.8772C56.0676 11.2749 55.8624 10.6836 55.463 10.2321V10.2321Z" fill="black"/>
<path d="M38.4099 0.695984C17.5895 0.695984 0.712006 8.61345 0.712006 18.2904C0.712006 27.9673 17.5895 35.8847 38.4099 35.8847C59.2302 35.8847 76.1165 28.0113 76.1165 18.2904C76.1165 8.56947 59.2389 0.695984 38.4099 0.695984ZM16.3426 18.1232C16.1888 19.134 15.7001 20.0635 14.9552 20.7624C14.0556 21.3872 12.975 21.6965 11.8817 21.6421C11.8212 21.6421 11.7631 21.6662 11.7203 21.7091C11.6775 21.752 11.6534 21.8102 11.6534 21.8708V24.3604C11.673 24.728 11.6193 25.0959 11.4954 25.4425C11.4367 25.62 11.3145 25.7695 11.1524 25.8621C10.9902 25.9547 10.7996 25.9838 10.6172 25.9439C10.3586 25.9237 10.1072 25.8487 9.87962 25.724C9.54937 25.5555 9.25195 25.3291 9.00149 25.0554C8.77749 24.824 8.60404 24.5483 8.49218 24.2461C8.40781 23.9748 8.35766 23.6941 8.3429 23.4103V13.8918C8.32253 13.5666 8.32253 13.2405 8.3429 12.9153C8.38373 12.515 8.50948 12.1281 8.71171 11.7804C8.93635 11.4833 9.19912 11.217 9.49324 10.9887C10.1654 10.4035 10.9055 9.90137 11.6973 9.49317C12.4197 9.12289 13.258 9.05027 14.0331 9.29084C14.5447 9.4724 15.0054 9.77405 15.3767 10.1706C15.641 10.5067 15.854 10.8802 16.0089 11.279C16.3887 12.2103 16.5969 13.2028 16.6236 14.2085C16.7266 15.5201 16.6319 16.8398 16.3426 18.1232V18.1232ZM25.8878 31.0551C25.6749 31.2294 25.4075 31.3228 25.1326 31.319H24.8516C24.5894 31.2707 24.3404 31.1674 24.1209 31.0158C23.9015 30.8641 23.7166 30.6677 23.5783 30.4393C23.3325 30.0242 23.2049 29.5496 23.2095 29.0669V23.6742C23.2074 23.6166 23.1835 23.5619 23.1428 23.5211C23.1021 23.4804 23.0475 23.4565 22.99 23.4543C22.1646 23.3927 21.5762 23.3136 20.8474 23.1992C20.8021 23.1823 20.7522 23.1823 20.7069 23.1992C20.6856 23.2155 20.6687 23.237 20.658 23.2616C20.6472 23.2862 20.6429 23.3132 20.6454 23.3399V27.8705C20.6838 28.1921 20.6475 28.5182 20.5393 28.8234C20.4312 29.1285 20.2541 29.4046 20.0219 29.6299C19.8488 29.747 19.6523 29.825 19.4461 29.8584C19.2399 29.8919 19.0289 29.8799 18.8277 29.8235C18.3677 29.6747 17.9711 29.3751 17.7019 28.9729C17.4327 28.5707 17.3065 28.0894 17.3437 27.6066V21.0703C17.5632 19.7859 19.0999 9.95942 19.0999 9.81867C19.1877 9.29964 19.2404 9.00933 19.3194 8.60466C19.3929 8.21417 19.5107 7.83341 19.6707 7.46982C19.8171 7.12612 20.0221 6.81057 20.2766 6.53732C20.5489 6.23127 20.902 6.00864 21.2952 5.89512C21.628 5.8075 21.9651 5.73703 22.3051 5.68399C22.7168 5.56684 23.1571 5.60438 23.5432 5.78956C23.8502 5.97308 24.0973 6.24204 24.2545 6.56371C24.4194 6.91476 24.5432 7.28377 24.6233 7.66336C24.7023 8.05043 24.8428 8.89496 24.8428 8.90376L26.5288 21.6861V29.3308C26.5481 29.6471 26.501 29.964 26.3906 30.261C26.2801 30.5579 26.1089 30.8284 25.8878 31.0551V31.0551ZM37.9971 29.7267C38.0116 30.1963 37.9278 30.6638 37.7513 31.0991C37.6048 31.5085 37.3372 31.8634 36.9842 32.1164C36.6312 32.3695 36.2095 32.5087 35.7755 32.5154C35.4265 32.5132 35.0847 32.4163 34.7863 32.2351C34.4879 32.0539 34.2441 31.7951 34.0807 31.4861C33.7118 30.6944 33.5371 29.8257 33.5714 28.9526V24.2988C33.5714 23.7358 33.5714 23.1288 33.5099 22.6538C33.4838 22.2746 33.428 21.8981 33.3431 21.5277C33.2764 21.2762 33.1463 21.046 32.9655 20.8591C32.8718 20.7792 32.7625 20.7199 32.6445 20.6851C32.5265 20.6502 32.4025 20.6406 32.2806 20.6568C32.2169 20.6654 32.1586 20.6969 32.1166 20.7455C32.0745 20.7941 32.0517 20.8564 32.0522 20.9207V30.149C32.0522 31.0991 31.5517 32.2075 30.1994 32.0756C29.6546 31.9886 29.1631 31.6978 28.824 31.2618C28.485 30.8258 28.3238 30.2772 28.3729 29.7267V7.73374C28.378 7.2405 28.428 6.74876 28.5222 6.2646C28.5909 5.84248 28.7562 5.44202 29.0052 5.09458C29.3086 4.68579 29.759 4.41132 30.2609 4.32922C31.1498 4.16255 32.0524 4.08008 32.9567 4.0829C33.4282 4.0743 33.8967 4.15927 34.3353 4.3329C34.7739 4.50653 35.1738 4.7654 35.512 5.09458C35.8136 5.40871 36.0815 5.75369 36.3111 6.12385C36.6029 6.6311 36.8329 7.1716 36.9961 7.73374C37.2102 8.42069 37.3688 9.12381 37.4703 9.83626C37.5936 10.7547 37.6523 11.6807 37.6459 12.6074V13.4871C37.6459 13.8478 37.5844 14.2437 37.5229 14.6747C37.4615 15.1058 37.3737 15.5544 37.2683 16.0119C37.1621 16.4745 37.0182 16.9276 36.838 17.3667C36.6623 17.7999 36.4353 18.2104 36.1619 18.5895C36.05 18.7503 35.9236 18.9005 35.7843 19.0381C35.7397 19.0841 35.7148 19.1456 35.7148 19.2097C35.7148 19.2737 35.7397 19.3353 35.7843 19.3812C35.8441 19.4512 35.8998 19.5247 35.9511 19.6011C36.2203 19.9911 36.4386 20.4138 36.6009 20.8591C36.8265 21.4265 36.9914 22.0163 37.0927 22.6186C37.211 23.6669 37.2609 24.7219 37.2419 25.7768V27.8529C37.2463 28.0653 37.2669 28.277 37.3034 28.4863C37.3378 28.5972 37.3956 28.6993 37.4729 28.7859C37.5501 28.8724 37.6451 28.9412 37.7513 28.9877C37.8856 29.0677 37.9833 29.1972 38.0235 29.3484C38.0291 29.4751 38.0203 29.602 37.9971 29.7267V29.7267ZM48.9561 29.8235C48.9919 30.3391 48.8302 30.849 48.5039 31.2494C48.1776 31.6499 47.7113 31.9107 47.1999 31.9788C46.9947 32.0104 46.7851 31.9976 46.5852 31.9415C46.3853 31.8854 46.1997 31.7871 46.0407 31.6533C45.8464 31.4463 45.6975 31.2008 45.6037 30.9326C45.5099 30.6644 45.4733 30.3794 45.4963 30.0962V24.4484C45.4974 24.4218 45.4924 24.3953 45.4817 24.3709C45.4711 24.3466 45.455 24.3249 45.4348 24.3076C45.4154 24.2883 45.392 24.2735 45.3661 24.2644C45.3403 24.2553 45.3128 24.252 45.2856 24.2549C44.3372 24.3164 43.942 24.3164 43.0288 24.3252C42.972 24.3252 42.9175 24.3471 42.8766 24.3865C42.8356 24.4259 42.8115 24.4796 42.8093 24.5364V30.2018C42.8093 31.3806 42.4404 32.3483 41.1233 32.4011H41.0354C40.6158 32.4129 40.2086 32.2579 39.9027 31.97C39.7191 31.7768 39.5757 31.549 39.4808 31.2998C39.3858 31.0506 39.3412 30.785 39.3494 30.5185V22.0644C39.4812 21.0263 39.6304 19.9354 39.7446 18.915C39.8851 17.6394 40.8598 10.3993 41.1672 8.12081C41.2286 7.63697 41.3164 7.16192 41.3955 6.70446C41.4758 6.27377 41.5994 5.8523 41.7643 5.44647C41.9111 5.08271 42.1395 4.75765 42.4317 4.49637C42.5957 4.36158 42.7854 4.26165 42.9892 4.20267C43.193 4.14369 43.4066 4.12688 43.6171 4.15328C44.0366 4.14372 44.4563 4.1643 44.8728 4.21486C45.2972 4.27065 45.6933 4.45833 46.0056 4.75149C46.2732 5.04955 46.4871 5.39185 46.6379 5.76317C46.8011 6.17187 46.9218 6.59639 46.9979 7.02996C47.0769 7.47862 47.1472 7.90968 47.2174 8.42871C47.8848 13.2056 48.9737 21.7565 48.9737 21.8444C49.0088 22.689 49.0088 29.7795 48.9561 29.7883V29.8235ZM59.3092 25.0554C59.2918 26.4231 58.843 27.7503 58.0271 28.847C57.2961 29.6402 56.3399 30.1898 55.2874 30.4217C54.312 30.7476 53.3056 30.9716 52.2842 31.0903C51.9568 31.0622 51.6479 30.9261 51.4061 30.7032C51.16 30.4643 50.9891 30.1585 50.9143 29.8235C50.8181 29.3515 50.7682 28.8712 50.7651 28.3895V7.91848C50.7737 7.46038 50.8236 7.004 50.9143 6.55491C50.9856 6.21855 51.157 5.91178 51.4061 5.67519C51.6448 5.4462 51.9548 5.30643 52.2842 5.27932C53.3055 5.40325 54.3116 5.6302 55.2874 5.9567C56.3435 6.17919 57.3024 6.73033 58.0271 7.5314C58.8365 8.60477 59.2854 9.90759 59.3092 11.2526C59.3882 12.1323 59.3707 12.8097 59.3707 13.5927V22.689C59.3707 23.4631 59.3882 24.1053 59.3092 25.0202V25.0554ZM64.7536 16.3726L66.1586 16.5485C66.5416 16.579 66.9021 16.7424 67.1778 17.0106C67.4535 17.2788 67.6272 17.6349 67.6689 18.0177C67.6689 19.0645 67.0103 19.5748 65.9127 19.7771L64.7887 19.997C64.7265 20.0088 64.6702 20.0413 64.6287 20.0892C64.5873 20.1371 64.5632 20.1976 64.5604 20.2609V22.4954C64.5585 22.521 64.5636 22.5465 64.5752 22.5694C64.5868 22.5922 64.6044 22.6115 64.626 22.6251C64.6477 22.6386 64.6727 22.646 64.6983 22.6464C64.7238 22.6468 64.749 22.6403 64.7711 22.6274C65.2014 22.4338 66.3166 21.9412 66.5888 21.8532C66.9009 21.7291 67.2394 21.6867 67.5723 21.7301C67.7145 21.737 67.8539 21.7725 67.9821 21.8345C68.1103 21.8965 68.2248 21.9836 68.3187 22.0907C68.5354 22.3315 68.6517 22.6464 68.6437 22.9705C68.6542 23.3388 68.5663 23.7033 68.389 24.0261C68.0308 24.5659 67.5491 25.0123 66.984 25.3281C65.8393 26.1521 64.6226 26.8705 63.3486 27.4746C62.8999 27.6516 62.401 27.6516 61.9523 27.4746C61.8074 27.3927 61.6801 27.2829 61.5776 27.1516C61.4752 27.0202 61.3996 26.8699 61.3552 26.7093C61.2505 26.3736 61.2031 26.0227 61.2147 25.6712V10.6544C61.2273 10.3115 61.2834 9.9715 61.3816 9.64273C61.4709 9.31616 61.6814 9.0361 61.9699 8.85978C62.1403 8.76423 62.3323 8.71406 62.5275 8.71406C62.7228 8.71406 62.9148 8.76423 63.0851 8.85978C64.0955 9.33257 65.0803 9.85819 66.0356 10.4345C66.2552 10.5576 66.8435 10.9447 67.0718 11.1031C67.3276 11.2669 67.5712 11.4492 67.8007 11.6485C68.0289 11.8494 68.2218 12.0873 68.3714 12.3523C68.5404 12.6134 68.6234 12.9211 68.6085 13.232C68.6321 13.5491 68.5348 13.8635 68.3363 14.1117C68.126 14.3472 67.8511 14.5155 67.546 14.5955C67.2884 14.6512 67.022 14.6512 66.7645 14.5955C66.2991 14.4812 65.1751 14.1381 64.7448 14.0061C64.7197 13.9978 64.693 13.9955 64.6669 13.9995C64.6408 14.0035 64.616 14.0136 64.5946 14.0291C64.5732 14.0445 64.5557 14.0649 64.5437 14.0884C64.5316 14.112 64.5253 14.138 64.5252 14.1645V16.0911C64.5288 16.1523 64.5535 16.2104 64.5952 16.2554C64.6369 16.3003 64.6929 16.3293 64.7536 16.3374V16.3726Z" fill="black"/>
</g>
</g>
<defs>
<clipPath id="clip0_1037_865">
<rect width="75.576" height="35.376" fill="white" transform="translate(0.712006 0.695984)"/>
</clipPath>
<clipPath id="clip1_1037_865">
<rect width="75.4045" height="35.1888" fill="white" transform="translate(0.712006 0.695984)"/>
</clipPath>
</defs>
</svg>
